<?xml version="1.0" encoding="utf-8"?>
<!-- Generator: Adobe Illustrator 19.2.0, SVG Export Plug-In . SVG Version: 6.00 Build 0)  -->
<!DOCTYPE svg PUBLIC "-//W3C//DTD SVG 1.1//EN" "http://www.w3.org/Graphics/SVG/1.1/DTD/svg11.dtd">
<svg version="1.1" id="Layer_1" xmlns="http://www.w3.org/2000/svg" xmlns:xlink="http://www.w3.org/1999/xlink" x="0px" y="0px"
	 viewBox="0 0 198.8 35.9" style="enable-background:new 0 0 198.8 35.9;" xml:space="preserve">
<style type="text/css">
	.st0{fill:#3785C5;}
</style>
<polygon class="st0" points="141.8,30.6 147.8,30.6 147.8,10.3 154,10.3 154,5.3 135.5,5.3 135.5,10.3 141.8,10.3 "/>
<path class="st0" d="M55.9,30.8c0.2-1.1,0.6-3.7,0.4-4.7c-0.3-1.3-1.3-4.3-1.5-5.2s-0.1-1.3-0.1-1.7s-1.9-4.5-1.9-4.5
	s-0.3-1-0.2-1.2s0.5-0.3,0.8-0.1s1,0.9,1.4,2s1.1,1.8,1.1,1.8s0.2,0.1,0.3,0s0.3-0.2,0.2-0.5s-1.2-4.2-1.3-4.6s-0.2-1.5,0.2-1.7
	s0.6-0.2,0.8,0s1,1.4,1.1,2.2s0.9,3.4,0.9,3.4s0,0.7,0.4,0.6s0.4-0.2,0.5-0.5s0.3-5.5,0.4-5.9s0.3-1.2,0.5-1.4s0.6-0.2,0.8-0.1
	s0.3,0.6,0.4,0.9s0,6.6,0,6.6s0.4,0.6,0.6,0s1.4-5,2.1-5.4s1,0.1,1,0.1s0.2,0.5,0.1,1.1s-1.6,5.9-1.6,5.9s-0.2,2,0.1,2.5
	s0.7,0,0.8-0.1s1.1-2.1,1.4-2.3s1.2-0.3,1.4-0.2s0.3,0.3,0.3,0.3s0.1,0.2-0.2,0.5s-0.4,0.5-0.6,1s-1.1,2.3-1.4,2.6s-0.5,1.2-1.6,2.2
	s-1.4,1.2-1.6,1.5s-0.3,0.6-0.3,0.6s-0.2,3.2-0.1,4.1c0,0.1,0,0.3,0,0.4c2.4-0.5,4.3-1.6,5.7-3.6c1.9-2.5,2.8-5.6,2.8-9.3
	c0-3.4-0.9-6.4-2.7-9.1c-1.8-2.6-4.5-4-8-4s-6.2,1.2-8.1,3.7c-1.8,2.6-2.8,5.7-2.8,9.4c0,3.6,0.9,6.7,2.8,9.3
	C52.4,29,54,30.1,55.9,30.8z"/>
<path class="st0" d="M123.2,31c2.7,0,5-0.8,6.9-2.4s3-3.9,3.4-6.9l-5.8-0.4c-0.5,3.2-2,4.8-4.5,4.8c-1.5,0-2.7-0.6-3.5-1.7
	s-1.3-3.3-1.3-6.5c0-5.5,1.5-8.3,4.6-8.3c2.7,0,4.1,1.8,4.2,5.4l6.2-0.4c-0.8-6.5-4.2-9.8-10.3-9.8c-3.5,0-6.3,1.2-8.3,3.7
	c-2,2.4-3,5.6-3,9.4c0,4.1,1,7.3,3.1,9.6C117.2,29.9,119.9,31,123.2,31z"/>
<path class="st0" d="M82.7,28.9c1.2-1.3,1.8-3.2,1.8-5.8v-18h-5.9v17.3c0,1-0.1,1.6-0.3,2c-0.2,0.4-0.5,0.7-0.9,1s-1,0.4-1.8,0.4
	s-1.8-0.1-3-0.3v4.9c1.4,0.3,2.8,0.4,4,0.4C79.5,30.8,81.5,30.2,82.7,28.9z"/>
<polygon class="st0" points="108.5,25.6 96.5,25.6 96.5,20.1 106,20.1 106,15.3 96.5,15.3 96.5,10.1 108.5,10.1 108.5,5.3 90.4,5.3 
	90.4,30.6 108.5,30.6 "/>
<path class="st0" d="M30.1,20.6h4.3l3.9,10h6.6l-4.7-11.2c2.9-1.3,4.4-3.5,4.4-6.5c0-1.6-0.4-3-1.2-4.2S41.5,6.5,40.2,6
	s-2.9-0.7-4.9-0.7H24.1v25.3h6V20.6z M30.1,9.8h3.5c1.4,0,2.3,0.1,2.8,0.2c0.5,0.1,1,0.5,1.4,1c0.4,0.6,0.6,1.2,0.6,1.9
	s-0.2,1.4-0.6,2c-0.4,0.6-0.9,0.9-1.4,1.1s-1.4,0.3-2.6,0.3h-3.6L30.1,9.8L30.1,9.8z"/>
<path class="st0" d="M6.2,21.2h4.2c1.8,0,3.1-0.1,4-0.3c0.8-0.2,1.7-0.7,2.6-1.4c0.9-0.7,1.6-1.6,2.1-2.8s0.7-2.4,0.7-3.7
	c0-1.8-0.5-3.3-1.4-4.5s-2-2-3.1-2.5c-1.2-0.5-2.9-0.7-5.1-0.7h-10v25.3h6C6.2,30.6,6.2,21.2,6.2,21.2z M6,9.9h3.8
	c1.3,0,2.4,0.3,3,0.9c0.7,0.6,1,1.4,1,2.4c0,0.9-0.3,1.7-0.9,2.3c-0.6,0.7-1.6,1-3.1,1H5.9L6,9.9L6,9.9z"/>
<path class="st0" d="M166.8,26.1c-2.2,0-3.7-1.1-4.2-3.3l-5.6,0.8c1.3,4.8,4.6,7.2,10,7.2c3.1,0,5.5-0.8,7.2-2.5s2.6-3.8,2.6-6.5
	c0-2.4-0.8-4.3-2.4-5.8c-1.6-1.5-3.5-2.3-5.8-2.3c-2.2,0-4,0.7-5.4,2.2l0.4-5.6h11l0.6-5.2h-15.8l-1,14.3l4.8,0.8
	c0.9-1.3,2.1-2,3.6-2c1.1,0,2.1,0.4,2.8,1.2c0.8,0.8,1.1,1.7,1.1,2.8c0,1-0.4,1.9-1.1,2.7C169,25.8,168,26.1,166.8,26.1z"/>
<path class="st0" d="M123.2,9.6c2.7,0,4.1,1.8,4.2,5.4l6.2-0.4c-0.8-6.5-4.2-9.8-10.3-9.8c-3.5,0-6.3,1.2-8.3,3.7
	c-2,2.4-3,5.6-3,9.4c0,4.1,1,7.3,3.1,9.6s4.8,3.5,8.2,3.5c2.7,0,5-0.8,6.9-2.4s3-3.9,3.4-6.9l-5.8-0.4c-0.5,3.2-2,4.8-4.5,4.8
	c-1.5,0-2.7-0.6-3.5-1.7s-1.3-3.3-1.3-6.5C118.5,12.4,120.1,9.6,123.2,9.6z"/>
<polygon class="st0" points="135.5,10.3 141.8,10.3 141.8,30.6 147.8,30.6 147.8,10.3 154,10.3 154,5.3 135.5,5.3 "/>
<path class="st0" d="M15.3,6c-1.2-0.5-2.9-0.7-5.1-0.7h-10v25.3h6v-9.4h4.2c1.8,0,3.1-0.1,4-0.3c0.8-0.2,1.7-0.7,2.6-1.4
	c0.9-0.7,1.6-1.6,2.1-2.8s0.7-2.4,0.7-3.7c0-1.8-0.5-3.3-1.4-4.5C17.5,7.3,16.4,6.5,15.3,6z M13,15.6c-0.6,0.7-1.6,1-3.1,1H6V9.9
	h3.8c1.3,0,2.4,0.3,3,0.9c0.7,0.6,1,1.4,1,2.4C13.8,14.1,13.5,14.9,13,15.6z"/>
<path class="st0" d="M44.5,12.9c0-1.6-0.4-3-1.2-4.2S41.5,6.5,40.2,6s-2.9-0.7-4.9-0.7H24.1v25.3h6v-10h4.3l3.9,10h6.6l-4.7-11.2
	C43.1,18.1,44.5,15.9,44.5,12.9z M37.8,14.9c-0.4,0.6-0.9,0.9-1.4,1.1s-1.4,0.3-2.6,0.3h-3.6V9.8h3.5c1.4,0,2.3,0.1,2.8,0.2
	s1,0.5,1.4,1c0.4,0.6,0.6,1.2,0.6,1.9C38.4,13.7,38.2,14.3,37.8,14.9z"/>
<polygon class="st0" points="90.4,30.6 108.5,30.6 108.5,25.6 96.5,25.6 96.5,20.1 106,20.1 106,15.3 96.5,15.3 96.5,10.1 
	108.5,10.1 108.5,5.3 90.4,5.3 "/>
<path class="st0" d="M84.6,5.1h-5.9v17.3c0,1-0.1,1.6-0.3,2c-0.2,0.4-0.5,0.7-0.9,1s-1,0.4-1.8,0.4s-1.8-0.1-3-0.3v4.9
	c1.4,0.3,2.8,0.4,4,0.4c2.8,0,4.8-0.6,6.1-1.9s1.8-3.2,1.8-5.8C84.6,23.1,84.6,5.1,84.6,5.1z"/>
<path class="st0" d="M55.9,30.8c0.2-1.1,0.6-3.7,0.4-4.7c-0.3-1.3-1.3-4.3-1.5-5.2s-0.1-1.3-0.1-1.7s-1.9-4.5-1.9-4.5
	s-0.3-1-0.2-1.2s0.5-0.3,0.8-0.1s1,0.9,1.4,2s1.1,1.8,1.1,1.8s0.2,0.1,0.3,0s0.3-0.2,0.2-0.5s-1.2-4.2-1.3-4.6s-0.2-1.5,0.2-1.7
	s0.6-0.2,0.8,0s1,1.4,1.1,2.2s0.9,3.4,0.9,3.4s0,0.7,0.4,0.6s0.4-0.2,0.5-0.5s0.3-5.5,0.4-5.9s0.3-1.2,0.5-1.4s0.6-0.2,0.8-0.1
	s0.3,0.6,0.4,0.9s0,6.6,0,6.6s0.4,0.6,0.6,0s1.4-5,2.1-5.4s1,0.1,1,0.1s0.2,0.5,0.1,1.1s-1.6,5.9-1.6,5.9s-0.2,2,0.1,2.5
	s0.7,0,0.8-0.1s1.1-2.1,1.4-2.3s1.2-0.3,1.4-0.2s0.3,0.3,0.3,0.3s0.1,0.2-0.2,0.5s-0.4,0.5-0.6,1s-1.1,2.3-1.4,2.6s-0.5,1.2-1.6,2.2
	s-1.4,1.2-1.6,1.5s-0.3,0.6-0.3,0.6s-0.2,3.2-0.1,4.1c0,0.1,0,0.3,0,0.4c2.4-0.5,4.3-1.6,5.7-3.6c1.9-2.5,2.8-5.6,2.8-9.3
	c0-3.4-0.9-6.4-2.7-9.1c-1.8-2.6-4.5-4-8-4s-6.2,1.2-8.1,3.7c-1.8,2.6-2.8,5.7-2.8,9.4c0,3.6,0.9,6.7,2.8,9.3
	C52.4,29,54,30.1,55.9,30.8z"/>
<path class="st0" d="M-4.6,18"/>
<g>
	<path class="st0" d="M198.8,30.9h-4.2l-10-11.8c-0.4-0.4-0.6-0.7-0.7-0.9h-0.1v12.7h-3V5.1h3v12.1h0.1c0.2-0.3,0.4-0.6,0.7-0.9
		l9.6-11.2h3.8l-11.1,12.4L198.8,30.9z"/>
</g>
</svg>
